<svg width="188" height="188" viewBox="0 0 188 188" fill="none" xmlns="http://www.w3.org/2000/svg">
<path d="M94 0C145.834 0 188 42.1664 188 94C188 145.834 145.834 188 94 188C42.1664 188 0 145.834 0 94C1.61558e-06 42.1664 42.1664 1.61538e-06 94 0ZM124.048 35.9971C123.564 35.9498 123.086 36.0022 122.623 36.1494C122.16 36.2967 121.739 36.5331 121.371 36.8486C121.003 37.1694 120.709 37.5485 120.493 37.9902C120.257 38.4793 120.13 39.0209 120.13 39.5625C120.13 40.1989 120.298 40.8251 120.619 41.3721C120.94 41.9191 121.402 42.3772 121.96 42.6875C131.007 47.6841 138.559 55.0265 143.809 63.9258C149.058 72.825 151.829 82.9915 151.829 93.3213C151.829 105.161 148.274 116.543 141.536 126.247C135.114 135.504 126.263 142.62 115.901 146.87V123.638C117.579 123.049 119.052 122.018 120.193 120.646C121.413 119.173 122.171 117.39 122.392 115.491C122.613 113.587 122.275 111.677 121.418 109.968C120.613 108.359 119.394 107.012 117.879 106.055C119.267 93.3004 123.328 90.7865 126.3 88.9404C128.067 87.8465 129.592 86.8994 129.592 84.1436V80.2197C129.592 76.154 125.553 66.6658 116.527 54.6426C104.031 37.997 96.9043 36.2551 95.0312 36.1182C94.3054 36.0445 93.679 36.0813 92.9795 36.1182C91.091 36.255 83.9644 37.9964 71.4521 54.6426C62.411 66.6659 58.3663 76.154 58.3662 80.2197V84.1328C58.3662 86.8887 59.8911 87.8358 61.6582 88.9297C64.6299 90.7705 68.6905 93.2899 70.0791 106.039C68.7169 106.891 67.5807 108.075 66.7812 109.474C65.9292 110.973 65.4872 112.677 65.5029 114.396C65.5029 118.462 68.1809 122.207 72.0625 123.633V146.87C61.7011 142.626 52.854 135.509 46.4268 126.247C39.6945 116.548 36.128 105.161 36.1279 93.3271C36.1279 72.3044 47.5842 52.9017 66.0244 42.6875C66.7133 42.3036 67.26 41.6984 67.5703 40.9727C67.8806 40.2469 67.9439 39.4315 67.7441 38.6689C67.5495 37.9063 67.0972 37.2222 66.4766 36.7383C65.856 36.2545 65.0828 35.9864 64.2939 35.9863H64.2881C63.694 35.9864 63.1051 36.1387 62.5898 36.4277C52.4283 42.0397 43.939 50.2925 38.043 60.291C32.147 70.2895 29.0335 81.7134 29.0439 93.3213C29.0439 108.185 33.9352 122.171 43.1816 133.773C52.1598 145.034 64.7622 153.092 78.6738 156.474L79.3252 156.632V129.203C80.9399 129.745 82.5973 130.192 84.2646 130.528V162.228C67.8705 159.94 52.8176 151.845 41.8145 139.391C30.5904 126.683 24.4043 110.326 24.4043 93.3213C24.3991 84.9218 25.8989 76.6751 28.8652 68.8174C29.0283 68.3756 29.1017 67.9124 29.0859 67.4443C29.0702 66.9763 28.9592 66.5187 28.7646 66.0928C28.57 65.6667 28.2964 65.2876 27.9492 64.9668C27.6022 64.6461 27.2082 64.3984 26.7666 64.2354C26.3248 64.0723 25.8616 63.9989 25.3936 64.0146C24.9255 64.0304 24.468 64.1414 24.042 64.3359C23.616 64.5305 23.2369 64.8042 22.916 65.1514C22.5954 65.4983 22.3486 65.8978 22.1855 66.334C17.9516 77.6473 16.4418 89.9762 17.8145 101.979C19.1872 113.981 23.4473 125.647 30.127 135.714C36.8067 145.781 45.9062 154.238 56.4307 160.166C66.9604 166.094 78.9048 169.491 90.9756 169.985L91.5225 170.007V131.438C92.5796 131.486 93.9158 131.512 94 131.512C94.0684 131.506 95.4047 131.486 96.4619 131.438V170.007L97.0088 169.985C109.079 169.475 121.019 166.072 131.543 160.14C142.067 154.202 151.162 145.75 157.842 135.683C164.521 125.616 168.787 113.955 170.165 101.952C171.548 89.9498 170.043 77.6213 165.825 66.3027C165.536 65.5139 164.973 64.8559 164.247 64.4404L164.227 64.4355C163.501 64.0254 162.649 63.8782 161.823 64.0254C160.998 64.1779 160.25 64.6143 159.714 65.2559C159.177 65.8975 158.888 66.7131 158.888 67.5547C158.893 67.9807 158.967 68.3964 159.114 68.8066C162.07 76.6643 163.564 84.9112 163.559 93.3105C163.559 110.31 157.378 126.673 146.154 139.38C135.151 151.84 120.098 159.929 103.704 162.212V130.513C105.371 130.171 107.028 129.728 108.643 129.187V156.621L109.295 156.463C123.207 153.081 135.814 145.024 144.787 133.763C154.033 122.16 158.925 108.175 158.925 93.3164C158.941 81.7084 155.837 70.2896 149.946 60.291C144.061 50.2873 135.577 42.0352 125.421 36.418C124.99 36.1865 124.532 36.0444 124.048 35.9971ZM112.487 108.687C113.239 108.687 113.992 108.833 114.691 109.128C115.912 109.633 116.921 110.553 117.542 111.721L117.537 111.716C118.158 112.878 118.352 114.236 118.095 115.529C117.832 116.823 117.127 117.996 116.106 118.832C115.086 119.668 113.803 120.126 112.482 120.126H112.477C111.719 120.126 110.983 119.979 110.284 119.689C109.585 119.395 108.958 118.974 108.427 118.438C107.496 117.501 106.917 116.265 106.791 114.95C106.665 113.641 107.002 112.31 107.738 111.216C108.475 110.122 109.579 109.306 110.841 108.928C111.377 108.765 111.935 108.687 112.487 108.687ZM75.5283 108.651C76.2804 108.651 77.0173 108.799 77.7168 109.088C78.4162 109.377 79.0421 109.798 79.5732 110.334C80.5041 111.27 81.0886 112.506 81.2148 113.821C81.3411 115.136 81.0098 116.462 80.2734 117.562L80.2783 117.566C79.5473 118.666 78.4428 119.475 77.1807 119.859C75.9184 120.238 74.5503 120.17 73.3301 119.665C72.11 119.155 71.0952 118.234 70.4746 117.072C69.854 115.91 69.6534 114.553 69.9111 113.259C70.1689 111.96 70.8742 110.786 71.8945 109.95C72.9148 109.114 74.2034 108.651 75.5234 108.651H75.5283Z" fill="white"/>
</svg>
